# xmcd
#
# Track frame offsets: 
#        150
#        22180
#        42865
#        63717
#        83552
#        101052
#        119145
#        137845
#        160755
#        179145
#        197300
#        220275
#        241615
#        256910
#        280385
#
# Disc length: 4048 seconds
#
# Revision: 0
# Processed by: cddbd v1.4PL0 Copyright (c) Steve Scherf et al.
# Submitted via: ExactAudioCopy v0.90a11
#
DISCID=dd0fce0f
DTITLE=Michael Hill's Blues Mob - Larger Than Life
DYEAR=1900
DGENRE=
TTITLE0=Partner In Crime
TTITLE1=Tonight
TTITLE2=Monticello Nights
TTITLE3=Undercover
TTITLE4=Lager Than Life
TTITLE5=41 Shots
TTITLE6=Blessings
TTITLE7=Haunted
TTITLE8=Terrible Twos
TTITLE9=Big Top Shuffle
TTITLE10=Cosmic Shop
TTITLE11=Willie Jackson Love
TTITLE12=Hurt Nobody
TTITLE13=Heat On The Highway
TTITLE14=Bundle Of Joy
EXTD=
EXTT0=
EXTT1=
EXTT2=
EXTT3=
EXTT4=
EXTT5=
EXTT6=
EXTT7=
EXTT8=
EXTT9=
EXTT10=
EXTT11=
EXTT12=
EXTT13=
EXTT14=
PLAYORDER=
